<?xml version="1.0" encoding="UTF-8"?>
<svg id="Capa_2" data-name="Capa 2" xmlns="http://www.w3.org/2000/svg" viewBox="0 0 840.88 251.01">
  <defs>
    <style>
      .cls-1 {
        fill: #d9d9d9;
      }
    </style>
  </defs>
  <g id="Capa_6" data-name="Capa 6">
    <g>
      <g>
        <path class="cls-1" d="M62.99,143.25l-50.06,37.77C4.64,164.3,0,145.44,0,125.5,0,56.18,56.2,0,125.5,0c45.33,0,85.04,24.01,107.08,60.02l-58.66,22.12c-11.91-13.29-29.18-21.65-48.42-21.65-35.9,0-64.99,29.11-64.99,65.01,0,6.15.86,12.11,2.48,17.75Z"/>
        <path class="cls-1" d="M251.01,125.5c0,69.31-56.18,125.5-125.5,125.5-45.31,0-85.02-24.03-107.08-60.02l58.69-22.12c11.89,13.29,29.16,21.63,48.39,21.63,35.9,0,65.01-29.09,65.01-64.99,0-6.15-.86-12.11-2.46-17.77l50.03-37.76c8.28,16.73,12.92,35.59,12.92,55.52Z"/>
      </g>
      <g>
        <path class="cls-1" d="M362.18,193.13c-11.07-6.54-19.81-15.64-26.23-27.3-6.42-11.66-9.64-24.89-9.64-39.68s3.21-28.01,9.64-39.68c6.42-11.66,15.17-20.76,26.23-27.31,11.06-6.54,23.24-9.81,36.51-9.81s25.45,3.27,36.51,9.81c11.06,6.54,19.81,15.65,26.23,27.31,6.42,11.66,9.64,24.89,9.64,39.68s-3.21,28.02-9.64,39.68c-6.42,11.66-15.17,20.77-26.23,27.3-11.07,6.54-23.24,9.81-36.51,9.81s-25.45-3.27-36.51-9.81ZM421.18,169.98c6.85-4.19,12.24-10.1,16.17-17.71,3.93-7.61,5.89-16.32,5.89-26.13s-1.96-18.52-5.89-26.13c-3.93-7.61-9.32-13.51-16.17-17.71-6.85-4.19-14.35-6.29-22.49-6.29s-15.63,2.1-22.49,6.29c-6.85,4.2-12.24,10.1-16.17,17.71-3.93,7.61-5.89,16.32-5.89,26.13s1.96,18.53,5.89,26.13c3.93,7.61,9.32,13.51,16.17,17.71,6.85,4.2,14.35,6.29,22.49,6.29s15.63-2.1,22.49-6.29Z"/>
        <path class="cls-1" d="M491.85,200.81v-107.94h22.49l2.14,9.17h1.07c4.28-6.11,10.85-9.17,19.7-9.17h19.92v24.53h-18.2c-6.85,0-12.07,1.81-15.63,5.44-3.57,3.63-5.35,8.93-5.35,15.89v62.08h-26.13Z"/>
        <path class="cls-1" d="M596.78,74.52h-28.05v-24.32h28.05v24.32ZM595.71,200.81h-26.13v-107.94h26.13v107.94Z"/>
        <path class="cls-1" d="M639.96,195.69c-8.35-4.83-14.92-11.52-19.7-20.05-4.78-8.53-7.17-18.13-7.17-28.8s2.39-20.27,7.17-28.8c4.78-8.53,11.35-15.22,19.7-20.05,8.35-4.83,17.74-7.25,28.16-7.25s19.81,2.42,28.16,7.25c8.35,4.84,14.92,11.52,19.7,20.05,4.78,8.53,7.17,18.13,7.17,28.8s-2.39,20.27-7.17,28.8c-4.78,8.53-11.35,15.22-19.7,20.05-8.35,4.84-17.74,7.25-28.16,7.25s-19.81-2.42-28.16-7.25ZM688.57,169.77c5.49-5.9,8.25-13.55,8.25-22.93,0-6.26-1.28-11.8-3.85-16.64-2.57-4.83-6.03-8.6-10.39-11.31-4.36-2.7-9.18-4.05-14.46-4.05s-10.14,1.35-14.56,4.05c-4.43,2.7-7.92,6.47-10.49,11.31-2.57,4.84-3.85,10.38-3.85,16.64s1.28,11.81,3.85,16.64c2.57,4.84,6.07,8.57,10.49,11.2,4.42,2.63,9.28,3.95,14.56,3.95,8.14,0,14.95-2.95,20.45-8.85Z"/>
        <path class="cls-1" d="M741.08,200.81v-107.94h22.49l2.14,10.24h1.07c2.71-3.13,6.78-5.97,12.21-8.53,5.42-2.56,11.78-3.84,19.06-3.84,8.28,0,15.67,1.89,22.17,5.65,6.49,3.77,11.56,9.07,15.2,15.89,3.64,6.83,5.46,14.72,5.46,23.68v64.85h-26.13v-61.44c0-6.97-2.22-12.69-6.64-17.17-4.43-4.48-9.99-6.72-16.7-6.72s-12.6,2.28-17.24,6.83c-4.64,4.55-6.96,10.24-6.96,17.07v61.44h-26.13Z"/>
      </g>
    </g>
  </g>
</svg>
