<?xml version="1.0" encoding="UTF-8"?>
<svg id="Capa_2" data-name="Capa 2" xmlns="http://www.w3.org/2000/svg" viewBox="0 0 846.97 173.74">
  <defs>
    <style>
      .cls-1 {
        fill: #d9d9d9;
      }
    </style>
  </defs>
  <g id="Capa_6" data-name="Capa 6">
    <g>
      <rect class="cls-1" x="380.04" y="3.11" width="41.88" height="167.52"/>
      <g>
        <path class="cls-1" d="M43.6,99.16l-34.65,26.15C3.21,113.72,0,100.67,0,86.87,0,38.89,38.9,0,86.87,0c31.38,0,58.86,16.62,74.12,41.54l-40.6,15.31c-8.24-9.2-20.2-14.98-33.52-14.98-24.85,0-44.98,20.15-44.98,45,0,4.26.59,8.38,1.71,12.29Z"/>
        <path class="cls-1" d="M173.74,86.87c0,47.97-38.89,86.87-86.87,86.87-31.36,0-58.85-16.63-74.12-41.54l40.63-15.31c8.23,9.2,20.19,14.97,33.49,14.97,24.85,0,45-20.14,45-44.98,0-4.26-.59-8.38-1.7-12.3l34.63-26.13c5.73,11.58,8.95,24.63,8.95,38.43Z"/>
      </g>
      <path class="cls-1" d="M338.16,0v41.87h-38.76c-24.85,0-45,20.15-45,45v83.76h-41.87v-83.76c0-15.18,3.89-29.46,10.75-41.89,7.35-13.34,18.12-24.55,31.12-32.43,12.29-7.46,26.59-11.96,41.88-12.49v-.06h41.87Z"/>
      <path class="cls-1" d="M547.57,0c-47.98,0-86.87,38.89-86.87,86.87s38.89,86.87,86.87,86.87,86.87-38.9,86.87-86.87S595.55,0,547.57,0ZM547.57,131.85c-24.85,0-45-20.14-45-44.98s20.15-45,45-45,44.99,20.15,44.99,45-20.14,44.98-44.99,44.98Z"/>
      <path class="cls-1" d="M846.97,86.87v83.76h-41.87v-83.76c0-24.85-20.15-45-45-45s-44.99,20.15-44.99,45v83.76h-41.88v-83.76c0-47.98,38.9-86.87,86.87-86.87s86.87,38.89,86.87,86.87Z"/>
    </g>
  </g>
</svg>